<svg width="44" height="26" viewBox="0 0 44 26" fill="none" xmlns="http://www.w3.org/2000/svg">
<path d="M43.2967 2.17773L41.8554 0.726435C41.4018 0.273195 40.7983 0.023502 40.1534 0.023502C39.5087 0.023502 38.9045 0.273195 38.4509 0.726435L22.0098 17.1683L5.54977 0.70819C5.09689 0.254951 4.49269 0.00561523 3.84806 0.00561523C3.20344 0.00561523 2.59888 0.254951 2.14564 0.70819L0.704006 2.15054C-0.234669 3.0885 -0.234669 4.61635 0.704006 5.55431L20.3017 25.2225C20.7546 25.6753 21.3581 25.9944 22.0084 25.9944H22.0159C22.6609 25.9944 23.2644 25.675 23.7173 25.2225L43.2967 5.60761C43.7503 5.15473 43.9993 4.533 44 3.88838C44 3.2434 43.7503 2.63025 43.2967 2.17773Z" fill="#7F7A7A"/>
</svg>
