<svg width="17" height="17" viewBox="0 0 17 17" fill="none" xmlns="http://www.w3.org/2000/svg">
<path d="M16.4569 15.4843L12.4109 11.2762C13.4512 10.0396 14.0212 8.48359 14.0212 6.86374C14.0212 3.07913 10.9421 0 7.15744 0C3.37284 0 0.293701 3.07913 0.293701 6.86374C0.293701 10.6484 3.37284 13.7275 7.15744 13.7275C8.57824 13.7275 9.93219 13.299 11.0898 12.4854L15.1665 16.7255C15.3369 16.9024 15.5661 17 15.8117 17C16.0442 17 16.2647 16.9114 16.4322 16.7502C16.7879 16.4079 16.7992 15.8403 16.4569 15.4843ZM7.15744 1.79054C9.95487 1.79054 12.2306 4.06632 12.2306 6.86374C12.2306 9.66117 9.95487 11.9369 7.15744 11.9369C4.36002 11.9369 2.08424 9.66117 2.08424 6.86374C2.08424 4.06632 4.36002 1.79054 7.15744 1.79054Z" fill="white"/>
</svg>
