<svg width="27" height="27" viewBox="0 0 27 27" fill="none" xmlns="http://www.w3.org/2000/svg">
<path d="M25.6131 10.4678C25.0488 9.76113 24.2789 9.3709 23.4457 9.3709H21.542C21.3627 4.4877 17.8242 0.580078 13.5 0.580078C9.17579 0.580078 5.63731 4.4877 5.45801 9.3709H3.5543C2.7211 9.3709 1.95118 9.76113 1.38692 10.4678C0.675004 11.3537 0.416605 12.5877 0.685551 13.7742L2.96895 23.8359C3.31172 25.3547 4.49297 26.4199 5.8377 26.4199H21.157C22.5018 26.4199 23.683 25.36 24.0258 23.8359L26.3145 13.7742C26.5834 12.5877 26.325 11.3537 25.6131 10.4678ZM13.5 2.73164C16.643 2.73164 19.2164 5.67422 19.3852 9.3709H7.61485C7.7836 5.67949 10.357 2.73164 13.5 2.73164ZM24.2156 13.2943L21.9322 23.3613C21.8162 23.8781 21.484 24.2684 21.1623 24.2684H5.8377C5.51602 24.2684 5.18379 23.8781 5.06778 23.3613L2.78438 13.2943C2.66309 12.7617 2.58926 11.5225 3.5543 11.5225H23.4457C24.4846 11.5225 24.3369 12.7617 24.2156 13.2943Z" fill="white"/>
<path d="M8.15802 13.6635C7.56212 13.6635 7.08223 14.1434 7.08223 14.7393V21.4629C7.08223 22.0588 7.56212 22.5387 8.15802 22.5387C8.75391 22.5387 9.2338 22.0588 9.2338 21.4629V14.7393C9.23907 14.1486 8.75391 13.6635 8.15802 13.6635Z" fill="white"/>
<path d="M13.3734 13.6635C12.7775 13.6635 12.2977 14.1434 12.2977 14.7393V21.4629C12.2977 22.0588 12.7775 22.5387 13.3734 22.5387C13.9693 22.5387 14.4492 22.0588 14.4492 21.4629V14.7393C14.4492 14.1486 13.9641 13.6635 13.3734 13.6635Z" fill="white"/>
<path d="M18.5836 13.6635C17.9877 13.6635 17.5078 14.1434 17.5078 14.7393V21.4629C17.5078 22.0588 17.9877 22.5387 18.5836 22.5387C19.1795 22.5387 19.6594 22.0588 19.6594 21.4629V14.7393C19.6594 14.1486 19.1795 13.6635 18.5836 13.6635Z" fill="white"/>
</svg>
